<mxfile host="app.diagrams.net" modified="2024-06-19T17:20:34.139Z" agent="Mozilla/5.0 (X11; Linux x86_64) AppleWebKit/537.36 (KHTML, like Gecko) Chrome/126.0.0.0 Safari/537.36" version="24.5.5" etag="xbFkcXZZhN3QDotxkc6y" type="github">
  <diagram name="Page-1" id="yu1hhraFgdrDqdv_gLaq">
    <mxGraphModel>
      <root>
        <mxCell id="0" />
        <mxCell id="1" parent="0" />
      </root>
    </mxGraphModel>
  </diagram>
</mxfile>
